<?xml version="1.0" encoding="UTF-8" standalone="no"?>
<svg
   xmlns:dc="http://purl.org/dc/elements/1.1/"
   xmlns:cc="http://creativecommons.org/ns#"
   xmlns:rdf="http://www.w3.org/1999/02/22-rdf-syntax-ns#"
   xmlns:svg="http://www.w3.org/2000/svg"
   xmlns="http://www.w3.org/2000/svg"
   xmlns:sodipodi="http://sodipodi.sourceforge.net/DTD/sodipodi-0.dtd"
   xmlns:inkscape="http://www.inkscape.org/namespaces/inkscape"
   width="406.22186"
   height="107.82688"
   viewBox="0 0 107.47953 28.529197"
   version="1.1"
   id="svg8"
   inkscape:version="0.92.4 (5da689c313, 2019-01-14)"
   sodipodi:docname="meddix_logo_or_bl.svg">
  <defs
     id="defs2" />
  <sodipodi:namedview
     id="base"
     pagecolor="#ffffff"
     bordercolor="#666666"
     borderopacity="1.0"
     inkscape:pageopacity="0.0"
     inkscape:pageshadow="2"
     inkscape:zoom="3.1028927"
     inkscape:cx="186.63167"
     inkscape:cy="57.360562"
     inkscape:document-units="px"
     inkscape:current-layer="layer1"
     inkscape:document-rotation="0"
     showgrid="false"
     inkscape:snap-center="true"
     showguides="true"
     inkscape:guide-bbox="true"
     units="px"
     fit-margin-left="0"
     fit-margin-top="0"
     fit-margin-right="0"
     fit-margin-bottom="0"
     inkscape:window-width="2560"
     inkscape:window-height="1377"
     inkscape:window-x="-8"
     inkscape:window-y="-8"
     inkscape:window-maximized="1" />
  <metadata
     id="metadata5">
    <rdf:RDF>
      <cc:Work
         rdf:about="">
        <dc:format>image/svg+xml</dc:format>
        <dc:type
           rdf:resource="http://purl.org/dc/dcmitype/StillImage" />
        <dc:title></dc:title>
      </cc:Work>
    </rdf:RDF>
  </metadata>
  <g
     inkscape:label="Layer 1"
     inkscape:groupmode="layer"
     id="layer1"
     transform="translate(-7.404314,-12.182371)">
    <path
       d="m 14.444938,13.980785 5.042114,19.306711 5.023778,-19.306711 h 7.040625 v 26.6957 h -5.408813 v -7.223974 l 0.495044,-11.12932 -5.335473,18.353294 h -3.666992 l -5.335473,-18.353294 0.495044,11.12932 v 7.223974 H 7.404314 v -26.6957 z"
       style="font-style:normal;font-variant:normal;font-weight:bold;font-stretch:normal;font-size:37.54999924px;line-height:1.25;font-family:'Roboto Condensed';-inkscape-font-specification:'Roboto Condensed, Bold';font-variant-ligatures:normal;font-variant-caps:normal;font-variant-numeric:normal;letter-spacing:0px;word-spacing:0px;fill:#ef7243;fill-opacity:1;stroke-width:3.52029991"
       id="path14"
       inkscape:connector-curvature="0" />
    <path
       d="m 43.634193,40.711567 q -3.997021,0 -6.233886,-2.383545 -2.236865,-2.383544 -2.236865,-6.820604 v -1.576807 q 0,-4.693749 2.053516,-7.242309 2.053515,-2.548559 5.885521,-2.548559 3.740332,0 5.628833,2.40188 1.8885,2.383544 1.92517,7.077294 v 2.548559 H 40.333901 q 0.110009,2.200195 0.971752,3.226953 0.861743,1.008423 2.658569,1.008423 2.603565,0 4.345386,-1.778491 l 2.03518,3.135278 q -0.953418,1.320117 -2.768579,2.14519 -1.815161,0.806738 -3.942016,0.806738 z M 40.370571,28.537154 h 5.188793 v -0.476709 q -0.03667,-1.778491 -0.586719,-2.695239 -0.550049,-0.916747 -1.906836,-0.916747 -1.356786,0 -1.980175,0.971752 -0.605054,0.971753 -0.715063,3.116943 z"
       style="font-style:normal;font-variant:normal;font-weight:bold;font-stretch:normal;font-size:37.54999924px;line-height:1.25;font-family:'Roboto Condensed';-inkscape-font-specification:'Roboto Condensed, Bold';font-variant-ligatures:normal;font-variant-caps:normal;font-variant-numeric:normal;letter-spacing:0px;word-spacing:0px;fill:#326e99;fill-opacity:1;stroke-width:3.52029991"
       id="path16"
       inkscape:connector-curvature="0" />
    <path
       d="m 52.893348,29.820601 q 0,-4.877099 1.650146,-7.278978 1.650146,-2.40188 4.803759,-2.40188 2.29187,0 3.813671,1.980176 v -9.937548 h 5.225464 v 28.162497 h -4.712085 l -0.238354,-2.016846 q -1.595142,2.383545 -4.107031,2.383545 -3.116943,0 -4.767089,-2.383545 -1.631811,-2.383544 -1.668481,-7.003954 z m 5.207128,1.301782 q 0,2.933594 0.623388,4.107031 0.623389,1.155103 2.108521,1.155103 1.540136,0 2.328539,-1.375122 v -9.05747 q -0.770068,-1.466797 -2.310204,-1.466797 -1.430127,0 -2.090186,1.155103 -0.660058,1.155102 -0.660058,4.107031 z"
       style="font-style:normal;font-variant:normal;font-weight:bold;font-stretch:normal;font-size:37.54999924px;line-height:1.25;font-family:'Roboto Condensed';-inkscape-font-specification:'Roboto Condensed, Bold';font-variant-ligatures:normal;font-variant-caps:normal;font-variant-numeric:normal;letter-spacing:0px;word-spacing:0px;fill:#326e99;fill-opacity:1;stroke-width:3.52029991"
       id="path18"
       inkscape:connector-curvature="0" />
    <path
       d="m 71.503333,29.820601 q 0,-4.877099 1.650146,-7.278978 1.650147,-2.40188 4.803759,-2.40188 2.29187,0 3.813672,1.980176 v -9.937548 h 5.225463 v 28.162497 h -4.712084 l -0.238355,-2.016846 q -1.595141,2.383545 -4.107031,2.383545 -3.116943,0 -4.767089,-2.383545 -1.631811,-2.383544 -1.668481,-7.003954 z m 5.207128,1.301782 q 0,2.933594 0.623389,4.107031 0.623388,1.155103 2.10852,1.155103 1.540137,0 2.32854,-1.375122 v -9.05747 q -0.770068,-1.466797 -2.310205,-1.466797 -1.430127,0 -2.090185,1.155103 -0.660059,1.155102 -0.660059,4.107031 z"
       style="font-style:normal;font-variant:normal;font-weight:bold;font-stretch:normal;font-size:37.54999924px;line-height:1.25;font-family:'Roboto Condensed';-inkscape-font-specification:'Roboto Condensed, Bold';font-variant-ligatures:normal;font-variant-caps:normal;font-variant-numeric:normal;letter-spacing:0px;word-spacing:0px;fill:#326e99;fill-opacity:1;stroke-width:3.52029991"
       id="path20"
       inkscape:connector-curvature="0" />
    <path
       style="font-style:normal;font-variant:normal;font-weight:bold;font-stretch:normal;font-size:37.54999924px;line-height:1.25;font-family:'Roboto Condensed';-inkscape-font-specification:'Roboto Condensed, Bold';font-variant-ligatures:normal;font-variant-caps:normal;font-variant-numeric:normal;letter-spacing:0px;word-spacing:0px;fill:#ef7243;fill-opacity:1;stroke-width:3.52029991"
       d="m 90.810039,15.372654 q 0,-1.210107 0.770068,-1.980176 0.770069,-0.770068 2.053516,-0.770068 1.283447,0 2.053515,0.770068 0.770068,0.770069 0.770068,1.980176 0,1.191772 -0.770068,1.980175 -0.751733,0.788404 -2.053515,0.788404 -1.301782,0 -2.071851,-0.788404 -0.751733,-0.788403 -0.751733,-1.980175 z"
       id="path35"
       inkscape:connector-curvature="0" />
    <path
       style="font-style:normal;font-variant:normal;font-weight:bold;font-stretch:normal;font-size:37.54999924px;line-height:1.25;font-family:'Roboto Condensed';-inkscape-font-specification:'Roboto Condensed, Bold';font-variant-ligatures:normal;font-variant-caps:normal;font-variant-numeric:normal;letter-spacing:0px;word-spacing:0px;fill:#ef7243;fill-opacity:1;stroke-width:3.52029991"
       d="M 96.255522,40.708221 H 91.048394 V 20.869795 h 5.207128 z"
       id="path22"
       inkscape:connector-curvature="0" />
    <path
       d="m 106.90814,26.75746 2.3102,-5.885522 h 5.50049 l -4.52873,9.699194 4.69375,10.139232 h -5.51883 l -2.43854,-6.215551 -2.42022,6.215551 h -5.537157 l 4.693747,-10.139232 -4.492062,-9.699194 h 5.518822 z"
       style="font-style:normal;font-variant:normal;font-weight:bold;font-stretch:normal;font-size:37.54999924px;line-height:1.25;font-family:'Roboto Condensed';-inkscape-font-specification:'Roboto Condensed, Bold';font-variant-ligatures:normal;font-variant-caps:normal;font-variant-numeric:normal;letter-spacing:0px;word-spacing:0px;fill:#326e99;fill-opacity:1;stroke-width:3.52029991"
       id="path24"
       inkscape:connector-curvature="0" />
    <path
       style="font-style:normal;font-variant:normal;font-weight:bold;font-stretch:normal;font-size:37.54999924px;line-height:1.25;font-family:'Roboto Condensed';-inkscape-font-specification:'Roboto Condensed, Bold';font-variant-ligatures:normal;font-variant-caps:normal;font-variant-numeric:normal;letter-spacing:0px;word-spacing:0px;fill:#ef7243;fill-opacity:1;stroke-width:3.11648011"
       d="m 114.71883,12.759923 v 5.207128 H 99.170786 v -5.207128 z"
       id="path37"
       inkscape:transform-center-x="-11.79036"
       inkscape:transform-center-y="-0.018335"
       inkscape:connector-curvature="0" />
  </g>
</svg>
